<?xml version="1.0" encoding="UTF-8" standalone="no"?>
<!-- Created with Inkscape (http://www.inkscape.org/) -->

<svg
   xmlns:dc="http://purl.org/dc/elements/1.1/"
   xmlns:cc="http://creativecommons.org/ns#"
   xmlns:rdf="http://www.w3.org/1999/02/22-rdf-syntax-ns#"
   xmlns:svg="http://www.w3.org/2000/svg"
   xmlns="http://www.w3.org/2000/svg"
   xmlns:xlink="http://www.w3.org/1999/xlink"
   xmlns:sodipodi="http://sodipodi.sourceforge.net/DTD/sodipodi-0.dtd"
   xmlns:inkscape="http://www.inkscape.org/namespaces/inkscape"
   id="svg2"
   sodipodi:docname="2_books.svg"
   
   viewBox="0 0 739.34874 619.69944"
   inkscape:export-xdpi="60.860001"
   version="1.1"
   inkscape:export-ydpi="60.860001"
   inkscape:version="0.92.5 (2060ec1f9f, 2020-04-08)"
   width="740"
   height="740">
  <defs
     id="defs4">
    <linearGradient
       id="linearGradient4023">
      <stop
         id="stop4031"
         style="stop-color:#ff6969"
         offset="0" />
      <stop
         id="stop4027"
         style="stop-color:#ff5151"
         offset="1" />
    </linearGradient>
    <linearGradient
       id="linearGradient3981">
      <stop
         id="stop3983"
         style="stop-color:#4b82d5"
         offset="0" />
      <stop
         id="stop3985"
         style="stop-color:#80a5dd"
         offset="1" />
    </linearGradient>
    <linearGradient
       id="linearGradient3916"
       y2="252.48"
       gradientUnits="userSpaceOnUse"
       x2="65.362999"
       gradientTransform="translate(-54,18)"
       y1="393.03"
       x1="815.91998"
       inkscape:collect="always">
      <stop
         id="stop3927"
         style="stop-color:#abe6ab"
         offset="0" />
      <stop
         id="stop3925"
         style="stop-color:#66d266"
         offset=".5" />
      <stop
         id="stop3921"
         style="stop-color:#6cd76c"
         offset="1" />
    </linearGradient>
    <linearGradient
       id="linearGradient3943"
       y2="318.35999"
       gradientUnits="userSpaceOnUse"
       x2="104.71"
       gradientTransform="translate(-54,18)"
       y1="689.37"
       x1="603.97998"
       inkscape:collect="always">
      <stop
         id="stop3947"
         style="stop-color:#8edc8e"
         offset="0" />
      <stop
         id="stop3949"
         style="stop-color:#7ad77a"
         offset=".23205" />
      <stop
         id="stop3951"
         style="stop-color:#66d266"
         offset=".63308" />
      <stop
         id="stop3953"
         style="stop-color:#6cd76c"
         offset="1" />
    </linearGradient>
    <linearGradient
       id="linearGradient3987"
       y2="413.47"
       xlink:href="#linearGradient3981"
       gradientUnits="userSpaceOnUse"
       x2="610.08002"
       gradientTransform="translate(-72.063,25.903)"
       y1="229.87"
       x1="365.70999"
       inkscape:collect="always" />
    <linearGradient
       id="linearGradient3995"
       y2="603.31"
       xlink:href="#linearGradient3981"
       gradientUnits="userSpaceOnUse"
       x2="463.79999"
       gradientTransform="translate(-72.063,25.903)"
       y1="267.23999"
       x1="191.36"
       inkscape:collect="always" />
    <linearGradient
       id="linearGradient4029"
       y2="171.37"
       xlink:href="#linearGradient4023"
       gradientUnits="userSpaceOnUse"
       x2="422.89999"
       gradientTransform="matrix(0.99993,-0.011478,0.011478,0.99993,1.893,23.916)"
       y1="276.35999"
       x1="641.71997"
       inkscape:collect="always" />
    <linearGradient
       id="linearGradient4043"
       y2="320.82001"
       xlink:href="#linearGradient4023"
       gradientUnits="userSpaceOnUse"
       x2="269.10001"
       gradientTransform="matrix(0.99993,-0.011478,0.011478,0.99993,1.893,23.916)"
       y1="433.72"
       x1="464.35999"
       inkscape:collect="always" />
  </defs>
  <sodipodi:namedview
     id="base"
     bordercolor="#666666"
     inkscape:pageshadow="2"
     inkscape:window-y="0"
     pagecolor="#ffffff"
     inkscape:window-height="991"
     inkscape:window-maximized="1"
     inkscape:zoom="0.71577333"
     inkscape:window-x="0"
     showgrid="false"
     borderopacity="1.0"
     inkscape:current-layer="layer9"
     inkscape:cx="194.67836"
     inkscape:cy="205.27667"
     inkscape:window-width="1680"
     inkscape:pageopacity="0.0"
     inkscape:document-units="px" />
  <g
     id="layer3"
     sodipodi:insensitive="true"
     inkscape:label="Book2"
     inkscape:groupmode="layer"
     transform="translate(-44.508428,-37.180415)">
    <g
       id="g4272">
      <path
         id="path3908"
         d="M 323.95,203.84 57.33,365.63 434.46,651.88 c 0,0 170.95,-140.53 251.85,-207.44 0,0 12.091,-10.178 11.15,-19.77 -1.7295,-17.64 -13.016,-21.365 -13.016,-21.365 l -316.13,-202.15 c 0,0 -10.304,-4.6746 -20.937,-3.6086 -14.33,1.4368 -23.418,6.3013 -23.418,6.3013 z"
         sodipodi:nodetypes="ccccsccsc"
         style="fill:#5fd35f;stroke:#217821;stroke-width:10;stroke-linecap:round;stroke-linejoin:round"
         inkscape:connector-curvature="0" />
      <path
         id="path3955"
         d="m 680.02,423.58 -256.97,212.39 -8.6144,-22.172 4.4706,-32.7 246.59,-201.63 c 0,0 -2.2575,13.943 1.1142,26.492 3.3717,12.55 13.408,17.626 13.408,17.626 z"
         sodipodi:nodetypes="ccccczc"
         style="fill:#f0f0f0;stroke:#646464;stroke-linejoin:round"
         inkscape:connector-curvature="0" />
      <path
         id="path3904"
         sodipodi:nodetypes="ccccsccsc"
         style="fill:url(#linearGradient3916);stroke:#217821;stroke-width:10;stroke-linecap:round;stroke-linejoin:round"
         inkscape:connector-curvature="0"
         d="M 304.28,159.84 58.75,307.59 438.63,589.4 676.64,393.53 c 0,0 12.091,-10.178 11.15,-19.77 -1.7295,-17.64 -13.016,-21.365 -13.016,-21.365 l -322.14,-198.15 c 0,0 -10.304,-4.6746 -20.937,-3.6086 -14.33,1.4368 -27.411,9.2053 -27.411,9.2053 z" />
      <path
         id="path3935"
         d="m 58.813,307.56 c 0,0 -5.2779,6.1348 -6.9144,11.232 -2.4755,7.7103 -3.194,23.309 -0.73612,32.947 1.9911,7.8078 5.8491,13.954 5.8491,13.954 l 377.07,285.98 c 0,0 -7.6262,-23.835 -5.1186,-38.523 3.912,-16.8 9.6927,-23.807 9.6927,-23.807 z"
         sodipodi:nodetypes="cssccccc"
         style="fill:url(#linearGradient3943);stroke:#217821;stroke-width:10;stroke-linecap:round;stroke-linejoin:round"
         inkscape:connector-curvature="0" />
    </g>
  </g>
  <g
     id="layer9"
     inkscape:label="Book1-Label"
     inkscape:groupmode="layer"
     transform="translate(-44.508428,-37.180415)">
    <rect
       id="rect4356"
       ry="12.49"
       style="fill:#ffffff;fill-rule:evenodd;stroke:#676767;stroke-width:5.28590012"
       rx="10.171"
       transform="matrix(0.86006,-0.51019,0.81729,0.57622,0,0)"
       height="110.42"
       width="169.87"
       y="402.48001"
       x="-158.37" />
  </g>
  <g
     id="layer2"
     sodipodi:insensitive="true"
     inkscape:label="Book2"
     inkscape:groupmode="layer"
     transform="translate(-44.508428,-37.180415)">
    <g
       id="g4266">
      <path
         id="path3957"
         sodipodi:nodetypes="ccccsccsc"
         style="fill:#4b82d5;stroke:#304f84;stroke-width:10;stroke-linecap:round;stroke-linejoin:round"
         inkscape:connector-curvature="0"
         d="M 387.14,144.98 68.13,260.83 339.86,607.44 689.66,448.96 c 0,0 14.354,-6.6142 15.986,-16.113 3.0023,-17.468 -6.895,-24.048 -6.895,-24.048 l -263.5,-256.42 c 0,0 -8.6991,-7.2358 -19.234,-9.0227 -14.199,-2.4082 -28.87,1.6198 -28.87,1.6198 z" />
      <path
         id="path3961"
         d="m 688.3,428.73 -355.23,164.04 -11.974,-26.743 8.382,-37.519 353.24,-158.46 c 0,0 -5.8996,16.595 -5.4339,28.769 0.46567,12.174 11.018,29.91 11.018,29.91 z"
         sodipodi:nodetypes="ccccczc"
         style="fill:#f0f0f0;stroke:#646464;stroke-width:1px;stroke-linecap:round;stroke-linejoin:round"
         inkscape:connector-curvature="0" />
      <path
         id="path3085"
         d="m 395.25,76.823 -331.01,117.85 281.74,344.61 357.79,-160.48 c 0,0 14.354,-6.6142 15.986,-16.113 3.0023,-17.468 -6.895,-24.048 -6.895,-24.048 l -269.5,-254.41 c 0,0 -8.6991,-7.2358 -19.234,-9.0227 -14.199,-2.4082 -28.87,1.6198 -28.87,1.6198 z"
         sodipodi:nodetypes="ccccsccsc"
         style="fill:url(#linearGradient3987);stroke:#304f84;stroke-width:10;stroke-linecap:round;stroke-linejoin:round"
         inkscape:connector-curvature="0" />
      <path
         id="path3959"
         d="m 64.283,194.66 c 0,0 -5.5613,3.305 -7.8934,15.084 -2.0574,10.391 -1.3052,17.722 0.25525,28.174 1.3313,8.9174 4.6329,13.827 4.6329,13.827 l 278.41,355.41 c 0,0 -4.0893,-10.606 -5.7449,-19.904 -1.6556,-9.298 -0.77193,-24.13 2.1168,-31.738 2.8887,-7.6084 9.6744,-16.411 9.6744,-16.411 z"
         sodipodi:nodetypes="csscczzcc"
         style="fill:url(#linearGradient3995);stroke:#304f84;stroke-width:10;stroke-linecap:round;stroke-linejoin:round"
         inkscape:connector-curvature="0" />
    </g>
  </g>
  <g
     id="layer8"
     sodipodi:insensitive="true"
     inkscape:label="Book2-Label"
     inkscape:groupmode="layer"
     transform="translate(-44.508428,-37.180415)">
    <rect
       id="rect4358"
       style="fill:#ffffff;fill-rule:evenodd;stroke:#676767;stroke-width:5.48769999"
       transform="matrix(0.94101,-0.33838,0.66457,0.74722,0,0)"
       rx="11.588"
       ry="11.816"
       height="104.46"
       width="193.53"
       y="305.87"
       x="9.3327999" />
  </g>
  <g
     id="g3997"
     sodipodi:insensitive="true"
     inkscape:label="Book3"
     inkscape:groupmode="layer"
     transform="translate(-44.508428,-37.180415)">
    <g
       id="g4260">
      <path
         id="path3999"
         sodipodi:nodetypes="ccccsccsc"
         style="fill:#ff5555;stroke:#a02c2c;stroke-width:10;stroke-linecap:round;stroke-linejoin:round"
         inkscape:connector-curvature="0"
         d="m 319.7,88.458 -227.83,164.67 422.9,260.66 254.74,-176.69 c 0,0 10.622,-11.219 9.198,-20.751 -1.9329,-12.939 -15.009,-20.014 -15.009,-20.014 L 363.589,81.503 c 0,0 -10.706,-3.6624 -21.187,-1.5791 -14.125,2.8077 -22.704,8.5234 -22.704,8.5234 z" />
      <path
         id="path4001"
         sodipodi:nodetypes="ccccczc"
         style="fill:#f0f0f0;stroke:#646464;stroke-linejoin:round"
         inkscape:connector-curvature="0"
         d="m 759.24,320.95 -257.36,178.1 -10.71,-21.24 1.31,-32.98 248.06,-168.4 c 0,0 -0.90663,14.095 3.656,26.263 4.5626,12.167 15.041,18.255 15.041,18.255 z" />
      <path
         id="path4003"
         d="M 323.87,54.647 87.7,195.217 512.92,451.207 754.99,283.357 c 0,0 10.912,-11.266 9.198,-20.751 -2.4277,-13.434 -15.009,-20.014 -15.009,-20.014 L 371.459,44.422 c 0,0 -10.706,-3.6624 -21.187,-1.5791 -14.125,2.8077 -26.399,11.798 -26.399,11.798 z"
         sodipodi:nodetypes="ccccsccsc"
         style="fill:url(#linearGradient4029);stroke:#a02c2c;stroke-width:10;stroke-linecap:round;stroke-linejoin:round"
         inkscape:connector-curvature="0" />
      <path
         id="path4005"
         sodipodi:nodetypes="cssccccc"
         style="fill:url(#linearGradient4043);stroke:#a02c2c;stroke-width:10;stroke-linecap:round;stroke-linejoin:round"
         inkscape:connector-curvature="0"
         d="m 87.76,195.18 c 0,0 -4.6636,6.6138 -5.8026,11.845 -1.7228,7.9126 -0.93843,23.508 2.4347,32.865 2.7325,7.5802 7.1635,13.327 7.1635,13.327 l 422.81,260.41 c 0,0 -9.8822,-22.991 -8.7983,-37.853 2.2788,-17.098 7.3591,-24.628 7.3591,-24.628 z" />
    </g>
  </g>
  <g
     id="layer7"
     sodipodi:insensitive="true"
     inkscape:label="Book3-Label"
     inkscape:groupmode="layer"
     transform="translate(-44.508428,-37.180415)">
    <rect
       id="rect4279"
       style="fill:#ffffff;fill-rule:evenodd;stroke:#676767;stroke-width:5.28590012"
       transform="matrix(0.83028,-0.55735,0.84815,0.52976,0,0)"
       rx="10.171"
       ry="12.49"
       height="110.42"
       width="169.87"
       y="340.64001"
       x="-54.987999" />
  </g>
  <metadata
     id="metadata1050">
    <rdf:RDF>
      <cc:Work>
        <dc:format>image/svg+xml</dc:format>
        <dc:type
           rdf:resource="http://purl.org/dc/dcmitype/StillImage" />
        <cc:license
           rdf:resource="http://creativecommons.org/licenses/publicdomain/" />
        <dc:publisher>
          <cc:Agent
             rdf:about="http://openclipart.org/">
            <dc:title>Openclipart</dc:title>
          </cc:Agent>
        </dc:publisher>
      </cc:Work>
      <cc:License
         rdf:about="http://creativecommons.org/licenses/publicdomain/">
        <cc:permits
           rdf:resource="http://creativecommons.org/ns#Reproduction" />
        <cc:permits
           rdf:resource="http://creativecommons.org/ns#Distribution" />
        <cc:permits
           rdf:resource="http://creativecommons.org/ns#DerivativeWorks" />
      </cc:License>
    </rdf:RDF>
  </metadata>
</svg>
